<svg width="72" height="24" viewBox="0 0 72 24" fill="none"
  xmlns="http://www.w3.org/2000/svg">
  <path d="M18.1633 0H22.5006L13.0111 23.975H9.4895L0 0H4.43454L11.3153 18.2958L18.1633 0Z" fill="white"/>
  <path d="M71.8365 3.80588H58.9234V9.97671H70.3695V13.7826H58.9234V20.1934H72V23.9993H54.9449V0H71.8365V3.80588Z" fill="white"/>
  <path d="M51.6176 15.2206C51.4363 14.6267 51.147 14.0745 50.7654 13.5941C50.3891 13.1313 49.9452 12.7329 49.4498 12.4136C48.9144 12.068 48.3492 11.7753 47.7614 11.5391C48.1568 11.2977 48.5318 11.0221 48.8827 10.7151C49.2515 10.3933 49.5732 10.0172 49.8376 9.59875C50.1228 9.13511 50.343 8.63161 50.4917 8.1034C50.6693 7.46851 50.7549 6.80963 50.7458 6.14848C50.7458 4.24797 50.1248 2.74907 48.8827 1.65177C47.6406 0.554478 45.9587 0.00388653 43.8371 0H34.4167V0.0641277C35.1418 1.09891 36.6106 3.82337 38.0851 7.36885V3.73689H43.3895C44.5886 3.73689 45.5024 4.00701 46.1309 4.54723C46.7595 5.08746 47.0743 5.85149 47.0756 6.83931C47.0756 7.96576 46.7159 8.79877 45.9964 9.33835C45.2769 9.87793 44.3179 10.148 43.1195 10.1487H39.1736C39.5894 11.2816 39.9902 12.466 40.3575 13.6796H43.9314C45.3903 13.6796 46.4745 13.9653 47.184 14.5366C47.8935 15.1079 48.2482 15.9079 48.2482 16.9365C48.2482 18.0338 47.8885 18.8623 47.169 19.4219C46.4496 19.9816 45.4616 20.2618 44.2052 20.2624H41.887C42.0801 21.4993 42.2009 22.7472 42.2486 23.9993H44.1426C45.2171 24.0114 46.2879 23.8675 47.3241 23.5718C48.2166 23.3227 49.0531 22.8936 49.7862 22.3087C50.4608 21.7567 51.0006 21.047 51.3616 20.2371C51.7316 19.4164 51.9166 18.4697 51.9166 17.3971C51.9288 16.6597 51.8279 15.925 51.6176 15.2206Z" fill="white"/>
  <path d="M29.7617 0C29.7617 0 35.1016 8.34631 35.5744 23.9993H36.3219C35.8491 8.34631 30.5092 0 30.5092 0H29.7617Z" fill="white"/>
  <path d="M25.6037 23.907C25.6043 23.92 25.6074 23.9328 25.6128 23.9445C25.6182 23.9563 25.6259 23.9668 25.6353 23.9754C25.6447 23.984 25.6557 23.9906 25.6676 23.9947C25.6795 23.9988 25.6921 24.0004 25.7046 23.9993H28.8217C28.845 24.0008 28.868 23.9931 28.8862 23.9778C28.9043 23.9625 28.9163 23.9407 28.9198 23.9167C29.0375 22.675 30.2728 8.84865 26.1419 0H25.6037V23.907Z" fill="white"/>
</svg>
